<svg xmlns="http://www.w3.org/2000/svg" xmlns:xlink="http://www.w3.org/1999/xlink" width="140" height="29" viewBox="0 0 140 29">
  <defs>
    <clipPath id="clip-path">
      <rect id="Rectangle_16" data-name="Rectangle 16" width="140" height="29" transform="translate(0 0.077)" fill="none"/>
    </clipPath>
  </defs>
  <g id="Group_4" data-name="Group 4" transform="translate(0 -0.077)">
    <g id="Group_3" data-name="Group 3" transform="translate(0 0)" clip-path="url(#clip-path)">
      <path id="Path_9" data-name="Path 9" d="M32.34,18.972H27.852a.934.934,0,0,1-1-.664L22.666,6.14c-.3-.831.034-1.129.832-1.129h3.889c.731,0,1.23.2,1.4.9l1.663,7.114,2.26-7.081c.2-.664.432-.93,1.263-.93h3.523a1.092,1.092,0,0,1,1.263.93l2.26,7.081,1.663-7.081a1.257,1.257,0,0,1,1.363-.93h3.59c.8,0,1.131.3.831,1.129L44.274,18.308a.944.944,0,0,1-.964.664H38.822a.934.934,0,0,1-1-.664l-2.26-6.782L33.3,18.308a.918.918,0,0,1-.964.664" transform="translate(12.532 2.783)" fill="#fff"/>
      <path id="Path_10" data-name="Path 10" d="M48.2,19.422c-5.485,0-8.643-2.592-8.643-7.313S42.711,4.8,47.43,4.8c4.289,0,7.148,2.66,7.148,6.681a10.429,10.429,0,0,1-.1,1.4c-.067.3-.333.4-.731.4H45.635A2.981,2.981,0,0,0,48.728,15.1a14.635,14.635,0,0,0,4.454-.863c.5-.134.765-.067.932.4l.9,2.792a.586.586,0,0,1-.333.832A15.6,15.6,0,0,1,48.2,19.422M45.5,10.647h3.722a1.8,1.8,0,0,0-1.895-1.663A1.931,1.931,0,0,0,45.5,10.647" transform="translate(21.974 2.664)" fill="#fff"/>
      <path id="Path_11" data-name="Path 11" d="M63.66,18.89a1.776,1.776,0,0,1-2.326.033l-1.2-.831a8.831,8.831,0,0,1-4.421,1.263c-3.19,0-5.152-1.594-5.152-4.421,0-2.027,1.862-3.988,5.584-3.988h2.427v-.1c0-.831-.6-1.263-1.6-1.263a13.733,13.733,0,0,0-4.421,1.064c-.532.2-.731.065-.93-.467L50.564,7.455c-.2-.5,0-.831.565-1.1A16.14,16.14,0,0,1,57.976,4.8c3.657,0,6.25,1.263,6.25,5.95V14.3c0,.532.067.666.4.865l1.064.632a.625.625,0,0,1,.1,1.03Zm-5.085-3.523v-1.8h-1.2c-.964,0-1.4.4-1.4,1.1,0,.632.465,1.031,1.4,1.031a2.243,2.243,0,0,0,1.2-.333" transform="translate(28.049 2.664)" fill="#fff"/>
      <path id="Path_12" data-name="Path 12" d="M71,18.972H66.175a.957.957,0,0,1-1-.664L60.325,6.14c-.331-.831.034-1.129.832-1.129h3.889a1.23,1.23,0,0,1,1.4.9l2.294,7.28,2.293-7.247a1.283,1.283,0,0,1,1.364-.93h3.589c.8,0,1.164.3.832,1.129L71.96,18.308a.942.942,0,0,1-.964.664" transform="translate(33.446 2.783)" fill="#fff"/>
      <path id="Path_13" data-name="Path 13" d="M79.717,19.422c-5.485,0-8.643-2.592-8.643-7.313S74.232,4.8,78.951,4.8c4.289,0,7.148,2.66,7.148,6.681a10.428,10.428,0,0,1-.1,1.4c-.067.3-.333.4-.731.4H77.156A2.981,2.981,0,0,0,80.249,15.1a14.635,14.635,0,0,0,4.454-.863c.5-.134.765-.067.932.4l.9,2.792a.586.586,0,0,1-.333.832,15.6,15.6,0,0,1-6.482,1.162m-2.693-8.775h3.722a1.8,1.8,0,0,0-1.895-1.663,1.931,1.931,0,0,0-1.828,1.663" transform="translate(39.486 2.664)" fill="#fff"/>
      <path id="Path_14" data-name="Path 14" d="M82.464,5.827a.663.663,0,0,1,.7-.7h4.254a.646.646,0,0,1,.7.7v1.23A4.774,4.774,0,0,1,92,4.8a4.329,4.329,0,0,1,1.8.3c.5.233.4.6.333.93L93.2,9.783c-.1.465-.431.532-.93.4a7.894,7.894,0,0,0-1.962-.3,3.8,3.8,0,0,0-2.193.632v7.879a.645.645,0,0,1-.7.7H83.162a.662.662,0,0,1-.7-.7Z" transform="translate(45.813 2.664)" fill="#fff"/>
      <path id="Path_15" data-name="Path 15" d="M23.559,9.2a.442.442,0,0,1-.6-.6C24.31,6.237,24.383,4.987,24,4.6s-1.635-.308-4,1.045a.442.442,0,0,1-.6-.6c1.355-2.363,1.428-3.614,1.045-4-.4-.4-1.719-.3-4.22,1.174A41.512,41.512,0,0,0,8.481,8.481a41.512,41.512,0,0,0-6.255,7.747c-1.476,2.5-1.574,3.82-1.174,4.22.383.383,1.633.308,4-1.045a.441.441,0,0,1,.6.6C4.3,22.367,4.223,23.618,4.6,24s1.633.31,4-1.044A.435.435,0,0,1,8.82,22.9a.442.442,0,0,1,.384.661c-1.355,2.363-1.428,3.614-1.045,4,.4.4,1.719.3,4.22-1.174a41.626,41.626,0,0,0,7.747-6.255,41.626,41.626,0,0,0,6.255-7.747c1.476-2.5,1.574-3.82,1.174-4.22-.383-.383-1.633-.31-4,1.045M1.364,20.135c-.076-.076-.163-.481.137-1.381a13.452,13.452,0,0,0,.583,1.416c-.448.079-.669.019-.72-.034m7.107,7.107c-.053-.053-.114-.272-.034-.72a13.452,13.452,0,0,0,1.416.583c-.9.3-1.305.213-1.381.137M20.135,1.364c.053.051.114.272.034.72A13.128,13.128,0,0,0,18.753,1.5c.9-.3,1.305-.213,1.381-.137m6.97,8.489a13.452,13.452,0,0,0-.583-1.416c.448-.079.667-.019.72.034.076.076.163.481-.137,1.381" transform="translate(0.472 0.471)" fill="#fff"/>
      <path id="Path_16" data-name="Path 16" d="M28.963,7.694a2.784,2.784,0,0,0-2.876-.381c-.087-.132-.177-.264-.269-.394a2.728,2.728,0,0,0-.409-2.78,2.728,2.728,0,0,0-2.78-.409c-.129-.092-.26-.18-.392-.268A2.79,2.79,0,0,0,21.856.587c-.98-.982-2.8-.73-5.424.737a13.852,13.852,0,0,0-1.657-.1A13.553,13.553,0,0,0,1.223,14.775a13.852,13.852,0,0,0,.1,1.657c-1.467,2.62-1.717,4.444-.737,5.424a2.79,2.79,0,0,0,2.876.381c.087.132.176.263.269.392a2.724,2.724,0,0,0,.408,2.78,2.728,2.728,0,0,0,2.78.409c.129.092.261.18.394.269a2.788,2.788,0,0,0,.381,2.876,2.129,2.129,0,0,0,1.576.586,8.5,8.5,0,0,0,3.848-1.325A13.556,13.556,0,0,0,28.224,13.117c1.468-2.618,1.719-4.443.739-5.423M21.221,21.221a42.418,42.418,0,0,1-7.922,6.39A8.574,8.574,0,0,1,9.28,29.1a1.712,1.712,0,0,1-1.274-.454c-.683-.681-.594-1.983.247-3.8-1.818.842-3.12.93-3.8.247s-.593-1.983.249-3.8c-1.818.842-3.12.93-3.8.249-.6-.6-.9-2,1.039-5.294a42.469,42.469,0,0,1,6.39-7.922,42.469,42.469,0,0,1,7.922-6.39C19.541,0,20.945.3,21.543.9c.681.683.593,1.985-.249,3.8,1.818-.84,3.12-.929,3.8-.247s.593,1.983-.249,3.8c1.818-.842,3.12-.93,3.8-.249.6.6.9,2-1.039,5.294a42.419,42.419,0,0,1-6.39,7.922" transform="translate(0 -0.001)" fill="#fff"/>
    </g>
  </g>
</svg>
