<svg xmlns="http://www.w3.org/2000/svg" xmlns:xlink="http://www.w3.org/1999/xlink" width="123.049" height="29.542" viewBox="0 0 123.049 29.542">
  <defs>
    <clipPath id="clip-path">
      <rect id="Rectangle_3" data-name="Rectangle 3" width="123.049" height="29.542" transform="translate(0 0)" fill="none"/>
    </clipPath>
  </defs>
  <g id="Group_5" data-name="Group 5" transform="translate(0 0)">
    <g id="Group_4" data-name="Group 4" clip-path="url(#clip-path)">
      <path id="Path_8" data-name="Path 8" d="M44.855,21.749H40.369a.933.933,0,0,1-1-.664L35.185,8.922c-.3-.83.034-1.129.832-1.129H39.9c.731,0,1.23.2,1.4.9L42.961,15.8l2.258-7.081c.2-.664.432-.93,1.263-.93H50a1.092,1.092,0,0,1,1.258.894l0,.036L53.526,15.8l1.662-7.078a1.257,1.257,0,0,1,1.362-.93h3.589c.8,0,1.13.3.83,1.129l-4.184,12.16a.943.943,0,0,1-.964.664H51.335a.933.933,0,0,1-1-.664L48.076,14.3l-2.257,6.78a.918.918,0,0,1-.964.664" fill="#fff"/>
      <path id="Path_9" data-name="Path 9" d="M70.145,22.081c-5.483,0-8.64-2.591-8.64-7.31s3.157-7.307,7.874-7.307c4.287,0,7.145,2.659,7.145,6.679a10.415,10.415,0,0,1-.1,1.4c-.067.3-.333.4-.731.4H67.585a2.98,2.98,0,0,0,3.091,1.821,14.652,14.652,0,0,0,4.452-.863c.5-.134.765-.067.931.4l.9,2.791a.587.587,0,0,1-.241.793.619.619,0,0,1-.092.039,15.6,15.6,0,0,1-6.48,1.162m-2.694-8.777h3.721a1.8,1.8,0,0,0-1.894-1.662,1.931,1.931,0,0,0-1.827,1.662" fill="#fff"/>
      <path id="Path_10" data-name="Path 10" d="M87.5,21.749H82.684a.957.957,0,0,1-1-.664L76.836,8.922c-.331-.83.034-1.129.832-1.129h3.887a1.23,1.23,0,0,1,1.395.9l2.294,7.277,2.292-7.245A1.283,1.283,0,0,1,88.9,7.8h3.587c.8,0,1.163.3.832,1.129L88.467,21.082a.942.942,0,0,1-.964.664" fill="#fff"/>
      <path id="Path_11" data-name="Path 11" d="M102.259,22.081c-5.483,0-8.64-2.591-8.64-7.31s3.157-7.307,7.875-7.307c4.287,0,7.145,2.659,7.145,6.679a10.415,10.415,0,0,1-.1,1.4c-.067.3-.333.4-.731.4H99.7a2.98,2.98,0,0,0,3.091,1.821,14.652,14.652,0,0,0,4.452-.863c.5-.134.765-.067.931.4l.9,2.791a.587.587,0,0,1-.241.793.619.619,0,0,1-.092.039,15.6,15.6,0,0,1-6.48,1.162m-2.692-8.772h3.721a1.8,1.8,0,0,0-1.894-1.662,1.931,1.931,0,0,0-1.827,1.662" fill="#fff"/>
      <path id="Path_12" data-name="Path 12" d="M111.33,8.49a.663.663,0,0,1,.624-.7h4.329a.647.647,0,0,1,.7.587.711.711,0,0,1,0,.113V9.72a4.774,4.774,0,0,1,3.883-2.256,4.332,4.332,0,0,1,1.794.3c.5.233.4.6.333.93l-.927,3.751c-.1.465-.431.532-.93.4a7.885,7.885,0,0,0-1.961-.3,3.8,3.8,0,0,0-2.193.631v7.876a.645.645,0,0,1-.585.7.736.736,0,0,1-.115,0h-4.254a.661.661,0,0,1-.7-.62.532.532,0,0,1,0-.08Z" fill="#fff"/>
      <path id="Path_13" data-name="Path 13" d="M24.021,9.673a.441.441,0,0,1-.6-.6c1.35-2.365,1.424-3.615,1.043-4s-1.634-.3-3.993,1.048a.441.441,0,0,1-.6-.6c1.354-2.362,1.427-3.612,1.045-3.995-.4-.4-1.718-.3-4.219,1.174A41.48,41.48,0,0,0,8.949,8.951,41.5,41.5,0,0,0,2.7,16.695c-1.476,2.5-1.574,3.819-1.174,4.218.383.383,1.633.308,4-1.045a.441.441,0,0,1,.6.6c-1.351,2.364-1.424,3.614-1.046,4s1.635.308,4-1.043a.431.431,0,0,1,.219-.059.442.442,0,0,1,.384.661c-1.354,2.362-1.427,3.612-1.045,3.995.4.4,1.718.3,4.219-1.174a41.61,41.61,0,0,0,7.744-6.253,41.61,41.61,0,0,0,6.253-7.744c1.476-2.5,1.574-3.819,1.174-4.219-.383-.383-1.633-.309-3.995,1.045M1.835,20.6c-.076-.076-.163-.48.137-1.381a13.4,13.4,0,0,0,.583,1.415c-.448.079-.669.019-.72-.034m7.1,7.1c-.053-.053-.114-.272-.034-.72a13.4,13.4,0,0,0,1.415.583c-.9.3-1.3.213-1.381.137M20.6,1.837c.053.051.114.272.034.72a13.113,13.113,0,0,0-1.415-.584c.9-.3,1.3-.213,1.381-.137m6.972,8.486a13.4,13.4,0,0,0-.583-1.415c.448-.079.667-.019.72.034.076.076.163.48-.137,1.381" fill="#fff"/>
      <path id="Path_14" data-name="Path 14" d="M28.952,7.692a2.782,2.782,0,0,0-2.875-.381c-.087-.132-.177-.264-.269-.393A2.728,2.728,0,0,0,25.4,4.139a2.726,2.726,0,0,0-2.779-.409c-.129-.092-.26-.18-.392-.267A2.788,2.788,0,0,0,21.848.587c-.98-.981-2.8-.729-5.422.737a13.888,13.888,0,0,0-1.656-.1A13.548,13.548,0,0,0,1.222,14.771a13.888,13.888,0,0,0,.1,1.656C-.143,19.045-.393,20.869.586,21.849a2.791,2.791,0,0,0,2.875.381c.087.132.176.263.269.392A2.724,2.724,0,0,0,4.138,25.4a2.726,2.726,0,0,0,2.779.409c.129.092.261.18.393.269a2.787,2.787,0,0,0,.381,2.875,2.128,2.128,0,0,0,1.575.586,8.5,8.5,0,0,0,3.847-1.325,13.551,13.551,0,0,0,15.1-15.1c1.468-2.617,1.718-4.441.739-5.421m-7.739,13.52a42.389,42.389,0,0,1-7.92,6.388,8.563,8.563,0,0,1-4.017,1.493A1.711,1.711,0,0,1,8,28.641c-.683-.681-.594-1.983.247-3.8-1.818.841-3.119.93-3.8.247s-.592-1.983.249-3.8c-1.818.841-3.119.93-3.8.249-.6-.6-.9-2,1.039-5.292a42.429,42.429,0,0,1,6.388-7.92,42.429,42.429,0,0,1,7.92-6.388C19.534,0,20.938.3,21.535.9c.681.683.592,1.984-.249,3.8,1.818-.84,3.119-.928,3.8-.247s.592,1.983-.249,3.8c1.818-.841,3.119-.93,3.8-.249.6.6.9,2-1.039,5.292a42.389,42.389,0,0,1-6.388,7.92" fill="#fff"/>
    </g>
  </g>
</svg>
