<svg xmlns="http://www.w3.org/2000/svg" xmlns:xlink="http://www.w3.org/1999/xlink" width="140" height="29.557" viewBox="0 0 140 29.557">
  <defs>
    <clipPath id="clip-path">
      <rect id="Rectangle_15" data-name="Rectangle 15" width="140" height="29.557" transform="translate(0 0)" fill="none"/>
    </clipPath>
  </defs>
  <g id="Group_2" data-name="Group 2" transform="translate(0 0)">
    <g id="Group_1" data-name="Group 1" transform="translate(0 0)" clip-path="url(#clip-path)">
      <path id="Path_1" data-name="Path 1" d="M32.336,18.967H27.85a.933.933,0,0,1-1-.664L22.666,6.14c-.3-.83.034-1.129.832-1.129h3.887c.731,0,1.23.2,1.395.9l1.662,7.111L32.7,5.941c.2-.664.432-.93,1.263-.93h3.522a1.091,1.091,0,0,1,1.263.93l2.259,7.078,1.662-7.078a1.257,1.257,0,0,1,1.362-.93h3.589c.8,0,1.13.3.83,1.129L44.266,18.3a.943.943,0,0,1-.964.664H38.816a.933.933,0,0,1-1-.664l-2.259-6.78L33.3,18.3a.917.917,0,0,1-.964.664" transform="translate(12.519 2.78)" fill="#256eff"/>
      <path id="Path_2" data-name="Path 2" d="M48.193,19.417c-5.483,0-8.64-2.591-8.64-7.31S42.71,4.8,47.427,4.8c4.287,0,7.145,2.659,7.145,6.679a10.423,10.423,0,0,1-.1,1.4c-.067.3-.333.4-.731.4H45.633A2.98,2.98,0,0,0,48.724,15.1a14.63,14.63,0,0,0,4.452-.863c.5-.134.765-.067.931.4l.9,2.791a.586.586,0,0,1-.333.832,15.592,15.592,0,0,1-6.48,1.162M45.5,10.645h3.721a1.8,1.8,0,0,0-1.894-1.662A1.931,1.931,0,0,0,45.5,10.645" transform="translate(21.952 2.662)" fill="#256eff"/>
      <path id="Path_3" data-name="Path 3" d="M63.655,18.885a1.775,1.775,0,0,1-2.325.033l-1.2-.83a8.828,8.828,0,0,1-4.419,1.263c-3.189,0-5.15-1.594-5.15-4.419,0-2.026,1.861-3.987,5.582-3.987h2.426v-.1c0-.83-.6-1.263-1.6-1.263a13.728,13.728,0,0,0-4.419,1.064c-.532.2-.731.065-.93-.466L50.564,7.454c-.2-.5,0-.83.564-1.1A16.134,16.134,0,0,1,57.973,4.8c3.656,0,6.248,1.263,6.248,5.948V14.3c0,.532.067.666.4.865l1.064.631a.625.625,0,0,1,.1,1.029Zm-5.083-3.522V13.569h-1.2c-.964,0-1.4.4-1.4,1.1,0,.631.465,1.031,1.4,1.031a2.243,2.243,0,0,0,1.2-.333" transform="translate(28.021 2.662)" fill="#256eff"/>
      <path id="Path_4" data-name="Path 4" d="M70.992,18.967H66.173a.957.957,0,0,1-1-.664L60.325,6.14c-.331-.83.034-1.129.832-1.129h3.887a1.23,1.23,0,0,1,1.395.9l2.294,7.277,2.292-7.245a1.282,1.282,0,0,1,1.364-.93h3.587c.8,0,1.163.3.832,1.129L71.956,18.3a.942.942,0,0,1-.964.664" transform="translate(33.412 2.78)" fill="#256eff"/>
      <path id="Path_5" data-name="Path 5" d="M79.714,19.417c-5.483,0-8.64-2.591-8.64-7.31S74.231,4.8,78.949,4.8c4.287,0,7.145,2.659,7.145,6.679a10.423,10.423,0,0,1-.1,1.4c-.067.3-.333.4-.731.4H77.154A2.98,2.98,0,0,0,80.245,15.1a14.63,14.63,0,0,0,4.452-.863c.5-.134.765-.067.931.4l.9,2.791a.586.586,0,0,1-.333.832,15.591,15.591,0,0,1-6.48,1.162m-2.692-8.772h3.721a1.8,1.8,0,0,0-1.894-1.662,1.931,1.931,0,0,0-1.827,1.662" transform="translate(39.446 2.662)" fill="#256eff"/>
      <path id="Path_6" data-name="Path 6" d="M82.464,5.826a.663.663,0,0,1,.7-.7h4.253a.646.646,0,0,1,.7.7v1.23A4.773,4.773,0,0,1,92,4.8a4.327,4.327,0,0,1,1.794.3c.5.233.4.6.333.93L93.2,9.781c-.1.465-.431.532-.93.4a7.891,7.891,0,0,0-1.961-.3,3.8,3.8,0,0,0-2.193.631v7.876a.645.645,0,0,1-.7.7H83.162a.661.661,0,0,1-.7-.7Z" transform="translate(45.767 2.662)" fill="#256eff"/>
      <path id="Path_7" data-name="Path 7" d="M23.55,9.2a.441.441,0,0,1-.6-.6C24.3,6.235,24.374,4.985,23.993,4.6S22.359,4.295,20,5.648a.441.441,0,0,1-.6-.6c1.354-2.362,1.427-3.612,1.045-3.995-.4-.4-1.718-.3-4.219,1.174A41.5,41.5,0,0,0,8.478,8.478a41.5,41.5,0,0,0-6.253,7.744C.749,18.722.651,20.041,1.051,20.44c.383.383,1.633.308,3.995-1.045a.441.441,0,0,1,.6.6C4.295,22.359,4.222,23.609,4.6,23.992S6.235,24.3,8.6,22.949a.434.434,0,0,1,.219-.059.442.442,0,0,1,.384.661c-1.354,2.362-1.427,3.612-1.045,3.995.4.4,1.718.3,4.219-1.174a41.611,41.611,0,0,0,7.744-6.253,41.611,41.611,0,0,0,6.253-7.744c1.476-2.5,1.574-3.819,1.174-4.219-.383-.383-1.633-.309-3.995,1.045M1.364,20.128c-.076-.076-.163-.48.137-1.381a13.448,13.448,0,0,0,.583,1.415c-.448.079-.669.019-.72-.034m7.1,7.1c-.053-.053-.114-.272-.034-.72a13.448,13.448,0,0,0,1.415.583c-.9.3-1.3.213-1.381.137M20.128,1.364c.053.051.114.272.034.72A13.123,13.123,0,0,0,18.747,1.5c.9-.3,1.3-.213,1.381-.137M27.1,9.849a13.449,13.449,0,0,0-.583-1.415c.448-.079.667-.019.72.034.076.076.163.48-.137,1.381" transform="translate(0.471 0.471)" fill="#256eff"/>
      <path id="Path_8" data-name="Path 8" d="M28.952,7.691a2.783,2.783,0,0,0-2.875-.381c-.087-.132-.177-.264-.269-.393A2.727,2.727,0,0,0,25.4,4.138a2.727,2.727,0,0,0-2.779-.409c-.129-.092-.26-.18-.392-.267A2.789,2.789,0,0,0,21.848.586c-.98-.981-2.8-.729-5.422.737a13.847,13.847,0,0,0-1.656-.1A13.548,13.548,0,0,0,1.222,14.77a13.847,13.847,0,0,0,.1,1.656C-.143,19.044-.393,20.868.586,21.848a2.789,2.789,0,0,0,2.875.381c.087.132.176.263.269.392A2.723,2.723,0,0,0,4.138,25.4a2.727,2.727,0,0,0,2.779.409c.129.092.261.18.393.269a2.787,2.787,0,0,0,.381,2.875,2.129,2.129,0,0,0,1.575.586,8.5,8.5,0,0,0,3.847-1.325,13.551,13.551,0,0,0,15.1-15.1c1.468-2.617,1.718-4.441.739-5.421M21.213,21.213a42.4,42.4,0,0,1-7.92,6.388,8.571,8.571,0,0,1-4.017,1.493A1.711,1.711,0,0,1,8,28.64c-.683-.681-.594-1.983.247-3.8-1.818.841-3.119.93-3.8.247s-.592-1.983.249-3.8c-1.818.841-3.119.93-3.8.249-.6-.6-.9-2,1.039-5.292a42.453,42.453,0,0,1,6.388-7.92,42.453,42.453,0,0,1,7.92-6.388C19.534,0,20.938.3,21.535.9c.681.683.592,1.984-.249,3.8,1.818-.84,3.119-.928,3.8-.247s.592,1.983-.249,3.8c1.818-.841,3.119-.93,3.8-.249.6.6.9,2-1.039,5.292a42.4,42.4,0,0,1-6.388,7.92" transform="translate(0 -0.001)" fill="#256eff"/>
    </g>
  </g>
</svg>
